<mxfile host="app.diagrams.net" agent="Mozilla/5.0 (Windows NT 10.0; Win64; x64) AppleWebKit/537.36 (KHTML, like Gecko) Chrome/134.0.0.0 Safari/537.36" version="26.2.10">
  <diagram name="Page-1" id="awmUcEQPq1uZhV9QXiFR">
    <mxGraphModel dx="1402" dy="3907" grid="1" gridSize="10" guides="1" tooltips="1" connect="1" arrows="1" fold="1" page="1" pageScale="1" pageWidth="2339" pageHeight="3300" math="0" shadow="0">
      <root>
        <mxCell id="0" />
        <mxCell id="1" parent="0" />
        <mxCell id="s13nMwmJoNRJo-cC7ovr-1" value="UISubsystem(extends JPanel)" style="swimlane;fontStyle=1;align=center;verticalAlign=top;childLayout=stackLayout;horizontal=1;startSize=26;horizontalStack=0;resizeParent=1;resizeParentMax=0;resizeLast=0;collapsible=1;marginBottom=0;whiteSpace=wrap;html=1;" vertex="1" parent="1">
          <mxGeometry x="585" y="-140" width="510" height="820" as="geometry" />
        </mxCell>
        <mxCell id="s13nMwmJoNRJo-cC7ovr-2" value="&lt;div&gt;- &lt;u&gt;SIMULATION_REFRESH: int=250&lt;/u&gt;&lt;/div&gt;&lt;div&gt;&lt;u&gt;- MAP_SCALE: int=3&lt;/u&gt;&lt;/div&gt;&lt;div&gt;&lt;u&gt;- BASE: int=60&lt;/u&gt;&lt;/div&gt;&lt;div&gt;&lt;u&gt;- droneSubsystem: DroneSubsystem&lt;/u&gt;&lt;/div&gt;&lt;div&gt;&lt;u&gt;- schedulerSubsystem: SchedulerSubsystem&lt;/u&gt;&lt;/div&gt;&lt;div&gt;&lt;u&gt;- fireIncidentSubsystem: FireIncidentSubsystem&lt;/u&gt;&lt;/div&gt;&lt;div&gt;&lt;u&gt;- droneSubsystemThread: Thread&lt;/u&gt;&lt;/div&gt;&lt;div&gt;&lt;u&gt;-&lt;/u&gt;&lt;u style=&quot;background-color: transparent; color: light-dark(rgb(0, 0, 0), rgb(255, 255, 255));&quot;&gt;schedulerSubsystemThread: Thread&lt;/u&gt;&lt;/div&gt;&lt;div&gt;&lt;u style=&quot;background-color: transparent; color: light-dark(rgb(0, 0, 0), rgb(255, 255, 255));&quot;&gt;-&amp;nbsp;&lt;/u&gt;&lt;u style=&quot;background-color: transparent; color: light-dark(rgb(0, 0, 0), rgb(255, 255, 255));&quot;&gt;fireIncidentSubsystemThread: Thread&lt;/u&gt;&lt;/div&gt;&lt;div&gt;&lt;u style=&quot;background-color: transparent; color: light-dark(rgb(0, 0, 0), rgb(255, 255, 255));&quot;&gt;- configFrame: JFrame&lt;/u&gt;&lt;/div&gt;&lt;div&gt;&lt;u style=&quot;background-color: transparent; color: light-dark(rgb(0, 0, 0), rgb(255, 255, 255));&quot;&gt;- dronesField: JTextField&lt;/u&gt;&lt;/div&gt;&lt;div&gt;&lt;u style=&quot;background-color: transparent; color: light-dark(rgb(0, 0, 0), rgb(255, 255, 255));&quot;&gt;-agentCapacityField: JTextField&lt;/u&gt;&lt;/div&gt;&lt;div&gt;&lt;u style=&quot;background-color: transparent; color: light-dark(rgb(0, 0, 0), rgb(255, 255, 255));&quot;&gt;- maxSpeedField: JTextField&lt;/u&gt;&lt;/div&gt;&lt;div&gt;&lt;u style=&quot;background-color: transparent; color: light-dark(rgb(0, 0, 0), rgb(255, 255, 255));&quot;&gt;- startButton: JButton&lt;/u&gt;&lt;/div&gt;&lt;div&gt;&lt;u style=&quot;background-color: transparent; color: light-dark(rgb(0, 0, 0), rgb(255, 255, 255));&quot;&gt;- zoneFilePathLabel: JLabel&lt;/u&gt;&lt;/div&gt;&lt;div&gt;&lt;u style=&quot;background-color: transparent; color: light-dark(rgb(0, 0, 0), rgb(255, 255, 255));&quot;&gt;- eventsFilePathLabel: JLabel&lt;/u&gt;&lt;/div&gt;&lt;div&gt;&lt;u style=&quot;background-color: transparent; color: light-dark(rgb(0, 0, 0), rgb(255, 255, 255));&quot;&gt;- simulationFrame: JFrame&lt;/u&gt;&lt;/div&gt;&lt;div&gt;&lt;u style=&quot;background-color: transparent; color: light-dark(rgb(0, 0, 0), rgb(255, 255, 255));&quot;&gt;- zonesPanels: HashMap&amp;lt;Integer, JPanel&amp;gt;&lt;/u&gt;&lt;/div&gt;&lt;div&gt;&lt;u style=&quot;background-color: transparent; color: light-dark(rgb(0, 0, 0), rgb(255, 255, 255));&quot;&gt;- dronesPanels: HashMap&amp;lt;Integer, JPanel&amp;gt;&lt;/u&gt;&lt;/div&gt;&lt;div&gt;&lt;u style=&quot;background-color: transparent; color: light-dark(rgb(0, 0, 0), rgb(255, 255, 255));&quot;&gt;- statsPanel: JPanel&lt;/u&gt;&lt;/div&gt;&lt;div&gt;&lt;u style=&quot;background-color: transparent; color: light-dark(rgb(0, 0, 0), rgb(255, 255, 255));&quot;&gt;- currentTimeLabel: JLabel&lt;/u&gt;&lt;/div&gt;&lt;div&gt;&lt;u style=&quot;background-color: transparent; color: light-dark(rgb(0, 0, 0), rgb(255, 255, 255));&quot;&gt;- elapsedTimeLabel: JLabel&lt;/u&gt;&lt;/div&gt;&lt;div&gt;&lt;u style=&quot;background-color: transparent; color: light-dark(rgb(0, 0, 0), rgb(255, 255, 255));&quot;&gt;- simulationStartMillis: long&lt;/u&gt;&lt;/div&gt;&lt;div&gt;&lt;u style=&quot;background-color: transparent; color: light-dark(rgb(0, 0, 0), rgb(255, 255, 255));&quot;&gt;- droneTable: JTable&lt;/u&gt;&lt;/div&gt;&lt;div&gt;&lt;u style=&quot;background-color: transparent; color: light-dark(rgb(0, 0, 0), rgb(255, 255, 255));&quot;&gt;- droneTableData: Object[][]&lt;/u&gt;&lt;/div&gt;&lt;div&gt;&lt;u style=&quot;background-color: transparent; color: light-dark(rgb(0, 0, 0), rgb(255, 255, 255));&quot;&gt;- fireTable: JTable&lt;/u&gt;&lt;/div&gt;&lt;div&gt;&lt;u style=&quot;background-color: transparent; color: light-dark(rgb(0, 0, 0), rgb(255, 255, 255));&quot;&gt;- fireTableModel: DefaultTableModel&lt;/u&gt;&lt;/div&gt;&lt;div&gt;&lt;u style=&quot;background-color: transparent; color: light-dark(rgb(0, 0, 0), rgb(255, 255, 255));&quot;&gt;- fireRows: ArrayList&amp;lt;FireRow&amp;gt;&lt;/u&gt;&lt;/div&gt;&lt;div&gt;&lt;u style=&quot;background-color: transparent; color: light-dark(rgb(0, 0, 0), rgb(255, 255, 255));&quot;&gt;- blackline: Border&lt;/u&gt;&lt;/div&gt;" style="text;strokeColor=none;fillColor=none;align=left;verticalAlign=top;spacingLeft=4;spacingRight=4;overflow=hidden;rotatable=0;points=[[0,0.5],[1,0.5]];portConstraint=eastwest;whiteSpace=wrap;html=1;" vertex="1" parent="s13nMwmJoNRJo-cC7ovr-1">
          <mxGeometry y="26" width="510" height="434" as="geometry" />
        </mxCell>
        <mxCell id="s13nMwmJoNRJo-cC7ovr-3" value="" style="line;strokeWidth=1;fillColor=none;align=left;verticalAlign=middle;spacingTop=-1;spacingLeft=3;spacingRight=3;rotatable=0;labelPosition=right;points=[];portConstraint=eastwest;strokeColor=inherit;" vertex="1" parent="s13nMwmJoNRJo-cC7ovr-1">
          <mxGeometry y="460" width="510" height="8" as="geometry" />
        </mxCell>
        <mxCell id="s13nMwmJoNRJo-cC7ovr-4" value="&lt;u&gt;+ setConfigFrame(): void&lt;/u&gt;&lt;div&gt;&lt;u&gt;- chooseFile(label: JLabel): void&lt;/u&gt;&lt;/div&gt;&lt;div&gt;&lt;u&gt;+ setSimulationFrame(): void&amp;nbsp;&lt;/u&gt;&lt;/div&gt;&lt;div&gt;&lt;u&gt;+ addMap(): void&amp;nbsp;&lt;/u&gt;&lt;/div&gt;&lt;div&gt;&lt;u&gt;- initZonePanels(zones: HashMap&amp;lt;Integer, Zone&amp;gt;): void&lt;/u&gt;&lt;/div&gt;&lt;div&gt;&lt;u&gt;- initDronePanels(): void&amp;nbsp;&lt;/u&gt;&lt;/div&gt;&lt;div&gt;&lt;u&gt;- updateZoneColors(zones: HashMap&amp;lt;Integer, Zone&amp;gt;): void&lt;/u&gt;&lt;/div&gt;&lt;div&gt;&lt;u style=&quot;background-color: transparent; color: light-dark(rgb(0, 0, 0), rgb(255, 255, 255));&quot;&gt;- updateDrones(): void&amp;nbsp;&lt;/u&gt;&lt;/div&gt;&lt;div&gt;&lt;u style=&quot;background-color: transparent; color: light-dark(rgb(0, 0, 0), rgb(255, 255, 255));&quot;&gt;- addBasePanel(): void&lt;/u&gt;&lt;/div&gt;&lt;div&gt;&lt;u style=&quot;background-color: transparent; color: light-dark(rgb(0, 0, 0), rgb(255, 255, 255));&quot;&gt;+ addLegend(): void&amp;nbsp;&lt;/u&gt;&lt;/div&gt;&lt;div&gt;&lt;u&gt;- makeLegendItem(color: Color: label: String): JPanel&lt;/u&gt;&lt;/div&gt;&lt;div&gt;&lt;u&gt;+ addStats(): void&lt;/u&gt;&lt;/div&gt;&lt;div&gt;&lt;u&gt;- createTimerPanel(): JPanel&lt;/u&gt;&lt;/div&gt;&lt;div&gt;&lt;u&gt;- createDroneTablePanel(): JPanel&lt;/u&gt;&lt;/div&gt;&lt;div&gt;&lt;u&gt;- updateDroneTableData(): void&lt;/u&gt;&lt;/div&gt;&lt;div&gt;&lt;u&gt;- createFireTablePanel(): JPanel&lt;/u&gt;&lt;/div&gt;&lt;div&gt;&lt;u&gt;- toTableRow(): Object[]&lt;/u&gt;&lt;/div&gt;&lt;div&gt;&lt;u&gt;- updateFireTableData(): void&lt;/u&gt;&lt;/div&gt;&lt;div&gt;&lt;u&gt;+ main(args: String): void&lt;/u&gt;&lt;/div&gt;" style="text;strokeColor=none;fillColor=none;align=left;verticalAlign=top;spacingLeft=4;spacingRight=4;overflow=hidden;rotatable=0;points=[[0,0.5],[1,0.5]];portConstraint=eastwest;whiteSpace=wrap;html=1;" vertex="1" parent="s13nMwmJoNRJo-cC7ovr-1">
          <mxGeometry y="468" width="510" height="352" as="geometry" />
        </mxCell>
      </root>
    </mxGraphModel>
  </diagram>
</mxfile>
